<svg width="381" height="53" viewBox="0 0 381 53" fill="none" xmlns="http://www.w3.org/2000/svg">
<path d="M63.9013 0C68.6477 0 72.6846 0.945972 76.0121 2.8379C79.3396 4.72983 81.8876 7.42682 83.6563 10.9289C85.4249 14.431 86.3043 18.5973 86.3043 23.4378V51.2532H70.1466V25.8832C70.1466 21.7471 69.1373 18.6073 67.1088 16.484C65.0804 14.3606 62.1826 13.2938 58.4255 13.2938C55.7575 13.2938 53.4592 13.8674 51.5207 14.9945C49.5822 16.1317 48.0733 17.7318 47.0041 19.8049C45.9349 21.878 45.3954 24.3435 45.3954 27.1915L40.2693 24.4844C40.9088 19.1809 42.3377 14.7128 44.566 11.1C46.7943 7.48721 49.5722 4.72983 52.8997 2.8379C56.2271 0.945972 59.8943 0 63.8913 0H63.9013ZM26.12 1.39882H42.1878L45.3954 18.3658V51.2532H29.2476V18.3658L26.12 1.39882Z" fill="white"/>
<path d="M131.3 0C136.046 0 140.083 0.945972 143.411 2.8379C146.738 4.72983 149.286 7.42682 151.055 10.9289C152.824 14.431 153.703 18.5973 153.703 23.4378V51.2532H137.545V25.8832C137.545 21.7471 136.536 18.6073 134.508 16.484C132.479 14.3606 129.581 13.2938 125.824 13.2938C123.156 13.2938 120.858 13.8674 118.92 14.9945C116.981 16.1317 115.472 17.7318 114.403 19.8049C113.334 21.878 112.794 24.3435 112.794 27.1915L107.668 24.4844C108.308 19.1809 109.736 14.7128 111.965 11.1C114.193 7.48721 116.971 4.72983 120.298 2.8379C123.626 0.945972 127.293 0 131.29 0H131.3ZM93.5188 1.39882H109.587L112.794 18.3658V51.2532H96.6464V18.3658L93.5188 1.39882Z" fill="white"/>
<path d="M192.274 52.662C186.018 52.662 180.553 51.555 175.856 49.3411C171.17 47.1271 167.522 44.0377 164.914 40.0727C162.306 36.1076 161.008 31.5288 161.008 26.336C161.008 21.1433 162.306 16.4939 164.914 12.5591C167.522 8.62432 171.18 5.54492 175.906 3.33095C180.622 1.11699 186.078 0.0100098 192.274 0.0100098C198.469 0.0100098 204.015 1.11699 208.731 3.33095C213.447 5.54492 217.115 8.62432 219.713 12.5591C222.321 16.4939 223.62 21.0829 223.62 26.336C223.62 31.5891 222.321 36.1781 219.713 40.1129C217.105 44.0477 213.447 47.1271 208.731 49.3411C204.015 51.555 198.529 52.662 192.274 52.662ZM192.274 40.4148C195.461 40.4148 198.159 39.8512 200.397 38.7141C202.626 37.5769 204.334 35.9567 205.524 33.8635C206.713 31.7602 207.302 29.2544 207.302 26.336C207.302 23.4176 206.703 20.9118 205.524 18.8186C204.334 16.7153 202.626 15.1052 200.397 13.968C198.169 12.8309 195.461 12.2673 192.274 12.2673C189.086 12.2673 186.538 12.8309 184.28 13.968C182.021 15.1052 180.283 16.7254 179.064 18.8186C177.845 20.9219 177.245 23.4277 177.245 26.336C177.245 29.2443 177.855 31.7602 179.064 33.8635C180.283 35.9667 182.021 37.5769 184.28 38.7141C186.538 39.8512 189.196 40.4148 192.274 40.4148Z" fill="white"/>
<path d="M271.663 1.3988L256.575 36.9329L241.606 1.3988H223.8L247.162 51.2633H265.488L288.85 1.3988H271.663Z" fill="white"/>
<path d="M349.654 52.662C343.399 52.662 337.933 51.555 333.236 49.3411C328.55 47.1271 324.903 44.0377 322.295 40.0727C319.687 36.1076 318.388 31.5288 318.388 26.336C318.388 21.1433 319.687 16.4939 322.295 12.5591C324.903 8.62432 328.56 5.54492 333.286 3.33095C338.003 1.11699 343.459 0.0100098 349.654 0.0100098C355.849 0.0100098 361.395 1.11699 366.111 3.33095C370.828 5.54492 374.495 8.62432 377.093 12.5591C379.701 16.4939 381 21.0829 381 26.336C381 31.5891 379.701 36.1781 377.093 40.1129C374.485 44.0477 370.828 47.1271 366.111 49.3411C361.395 51.555 355.909 52.662 349.654 52.662ZM349.654 40.4148C352.841 40.4148 355.539 39.8512 357.778 38.7141C360.006 37.5769 361.715 35.9567 362.904 33.8635C364.093 31.7602 364.682 29.2544 364.682 26.336C364.682 23.4176 364.083 20.9118 362.904 18.8186C361.715 16.7153 360.006 15.1052 357.778 13.968C355.549 12.8309 352.841 12.2673 349.654 12.2673C346.466 12.2673 343.918 12.8309 341.66 13.968C339.402 15.1052 337.663 16.7254 336.444 18.8186C335.225 20.9219 334.625 23.4277 334.625 26.336C334.625 29.2443 335.235 31.7602 336.444 33.8635C337.663 35.9667 339.402 37.5769 341.66 38.7141C343.918 39.8512 346.576 40.4148 349.654 40.4148Z" fill="white"/>
<path d="M18.0362 21.9887V51.213H1.8786V21.9887L9.9024 23.6592L18.0362 21.9887Z" fill="white"/>
<path d="M10.0523 18.3759C7.09454 18.3759 4.67638 17.601 2.8078 16.0513C0.939222 14.5015 0 12.4485 0 9.89242C0 7.33631 0.939222 5.21291 2.8078 3.69333C4.67638 2.17375 7.09454 1.40894 10.0523 1.40894C13.01 1.40894 15.4882 2.17375 17.2968 3.69333C19.1054 5.21291 20.0147 7.28599 20.0147 9.89242C20.0147 12.4989 19.1054 14.5015 17.2968 16.0513C15.4882 17.601 13.07 18.3759 10.0523 18.3759Z" fill="#E7B077"/>
<path d="M310.494 22.039V51.2633H294.336V22.039L302.36 23.7196L310.494 22.039Z" fill="white"/>
<path d="M302.51 18.4262C299.552 18.4262 297.134 17.6514 295.265 16.1016C293.397 14.5518 292.457 12.4989 292.457 9.94275C292.457 7.38663 293.397 5.26324 295.265 3.74365C297.134 2.22407 299.552 1.45923 302.51 1.45923C305.468 1.45923 307.946 2.22407 309.754 3.74365C311.563 5.26324 312.472 7.33631 312.472 9.94275C312.472 12.5492 311.563 14.5518 309.754 16.1016C307.946 17.6514 305.528 18.4262 302.51 18.4262Z" fill="#E7B077"/>
</svg>
